<?xml version="1.0" standalone="no"?>
<!DOCTYPE svg PUBLIC "-//W3C//DTD SVG 20010904//EN"
 "http://www.w3.org/TR/2001/REC-SVG-20010904/DTD/svg10.dtd">
<svg version="1.0" xmlns="http://www.w3.org/2000/svg"
 width="192.000000pt" height="192.000000pt" viewBox="0 0 192.000000 192.000000"
 preserveAspectRatio="xMidYMid meet">
<metadata>
Created by potrace 1.16, written by Peter Selinger 2001-2019
</metadata>
<g transform="translate(0.000000,192.000000) scale(0.100000,-0.100000)"
fill="#000000" stroke="none">
<path d="M0 960 l0 -960 960 0 960 0 0 960 0 960 -960 0 -960 0 0 -960z m804
555 l169 -98 51 26 c28 15 127 69 220 122 93 52 170 95 172 95 2 0 4 -42 4
-94 l0 -94 -219 -126 c-120 -69 -221 -126 -224 -126 -3 0 -62 34 -130 75 -69
41 -128 75 -131 75 -3 0 -6 -39 -6 -88 l0 -87 131 -78 c82 -50 136 -76 146
-72 9 3 107 57 218 120 111 63 205 115 209 115 3 0 6 -44 6 -97 l0 -98 -137
-75 c-75 -41 -175 -96 -223 -122 l-86 -47 -132 79 -132 79 0 -87 0 -88 127
-74 c70 -40 133 -73 139 -73 10 0 369 196 422 231 l23 15 -3 -103 -3 -103
-215 -123 c-118 -68 -218 -124 -223 -124 -4 0 -105 56 -225 125 l-218 125 3
178 c2 97 6 309 9 470 l6 292 42 -23 c22 -13 117 -68 210 -122z m-149 -1032
c154 -90 289 -169 300 -174 17 -9 48 6 185 86 91 53 225 131 298 173 l132 76
0 439 0 438 79 -42 79 -43 7 -310 c3 -171 5 -371 3 -445 l-3 -134 -115 -67
c-63 -36 -232 -135 -374 -218 -143 -84 -265 -152 -271 -152 -11 0 -154 82
-603 348 l-162 96 2 440 3 440 75 42 75 41 5 -435 5 -435 280 -164z"/>
</g>
</svg>
