<svg xmlns="http://www.w3.org/2000/svg" width="1604.825" height="495.34" viewBox="0 0 1604.825 495.34">
  <g id="Group_2" data-name="Group 2" transform="translate(-229.129 -1449.035)">
    <path id="Path_8" data-name="Path 8" d="M346.156,226.486c-73.558-181.189-166.263-60.94-225-81.252S0,0,0,0" transform="matrix(-0.819, -0.574, 0.574, -0.819, 1225.093, 1835.589)" fill="none" stroke="#272934" stroke-width="5"/>
    <path id="Path_7" data-name="Path 7" d="M1221.2,1517.717c-73.558,181.188-166.263,60.939-225,81.252S875.048,1744.2,875.048,1744.2" transform="matrix(0.819, -0.574, 0.574, 0.819, -980.846, 908.728)" fill="none" stroke="#272934" stroke-width="5"/>
    <path id="Path_6" data-name="Path 6" d="M682.835,104.078c-145.1-83.262-327.974-28-443.843-37.338S0,0,0,0" transform="matrix(-0.819, -0.574, 0.574, -0.819, 1772.149, 1941.914)" fill="none" stroke="#272934" stroke-width="5"/>
    <path id="Path_4" data-name="Path 4" d="M1369.285,1517.718c-105.025,55.268-237.388,18.588-321.254,24.784s-172.983,44.3-172.983,44.3" transform="matrix(0.819, -0.574, 0.574, 0.819, -1356.121, 993.663)" fill="none" stroke="#272934" stroke-width="5"/>
  </g>
</svg>
